<svg width="60" height="60" viewBox="0 0 60 60" fill="none" xmlns="http://www.w3.org/2000/svg">
	<rect width="60" height="60" fill="#C80F11" />
	<path fill-rule="evenodd" clip-rule="evenodd" d="M43.1836 27.3633C43.1836 34.6444 37.2811 40.5469 30 40.5469C22.7189 40.5469 16.8164 34.6444 16.8164 27.3633C16.8164 20.0822 22.7189 14.1797 30 14.1797C37.2811 14.1797 43.1836 20.0822 43.1836 27.3633Z" fill="#C80F11" />
	<path fill-rule="evenodd" clip-rule="evenodd" d="M47.4133 43.9398C45.6637 39.9167 45.3624 36.5079 45.3155 35.1685V24.1486C45.3155 15.7302 38.4571 8.90625 29.9973 8.90625C21.5366 8.90625 14.678 15.7302 14.678 24.1486V35.3278C14.6126 36.7687 14.2688 40.0734 12.5868 43.9398C10.326 49.1352 12.197 48.5159 13.8729 48.0886C15.5486 47.6629 19.2909 45.9942 20.46 48.0498C21.6286 50.1044 22.6036 51.8889 25.3318 50.7254C28.0602 49.5623 29.3459 49.1747 29.7354 49.1747H30.2654C30.6544 49.1747 31.9406 49.5623 34.6688 50.7254C37.397 51.8889 38.3714 50.1044 39.5408 48.0498C40.7094 45.9942 44.4515 47.6629 46.1276 48.0886C47.8035 48.5159 49.6736 49.1352 47.4133 43.9398ZM25.269 17.2176C26.919 17.2176 28.2565 19.3235 28.2565 21.9221C28.2565 24.5206 26.919 26.6272 25.269 26.6272C23.619 26.6272 22.2812 24.5206 22.2812 21.9221C22.2812 19.3235 23.619 17.2176 25.269 17.2176ZM34.7256 26.6272C33.0745 26.6272 31.7374 24.5206 31.7374 21.9221C31.7374 19.3235 33.0745 17.2176 34.7256 17.2176C36.3765 17.2176 37.7131 19.3235 37.7131 21.9221C37.7131 24.5206 36.3765 26.6272 34.7256 26.6272Z" fill="white" />
	<path fill-rule="evenodd" clip-rule="evenodd" d="M29.9716 34.1894C25.9727 34.1894 22.7344 34.1894 22.7344 33.0583C22.7344 31.9272 25.9727 31.8457 29.9716 31.8457C33.9699 31.8457 37.207 31.9272 37.207 33.0583C37.207 34.1894 33.9699 34.1894 29.9716 34.1894Z" fill="#C80F11" />
</svg>
